0
SECTION
2
HEADER
9
$INSUNITS
70
4
0
ENDSEC
0
SECTION
2
TABLES
0
TABLE
2
LTYPE
0
LTYPE
72
65
70
64
2
CONTINUOUS
3
______
73
0
40
0
0
ENDTAB
0
TABLE
2
LAYER
0
ENDTAB
0
ENDSEC
0
SECTION
2
ENTITIES
0
LINE
8
0
10
-6.5135934
20
-10.5272551
11
10.8819835
21
-5.9019009
0
LINE
8
0
10
-2.2231868
20
43.3855671
11
10.8819835
21
-5.9019009
0
LINE
8
0
10
-10.8819835
20
5.9019009
11
6.5135934
21
10.5272551
0
LINE
8
0
10
-19.6187637
20
38.7602129
11
-6.5135934
21
-10.5272551
0
LINE
8
0
10
-15.2503736
20
22.3310569
11
2.1452033
21
26.9564111
0
LINE
8
0
10
-2.2231868
20
43.3855671
11
-19.6187637
21
38.7602129
0
LINE
8
0
10
9.2800619
20
0.838912
11
27.2800619
21
0.838912
0
LINE
8
0
10
27.2800619
20
0.838912
11
27.2800619
21
51.838912
0
LINE
8
0
10
9.2800619
20
17.838912
11
27.2800619
21
17.838912
0
LINE
8
0
10
9.2800619
20
0.838912
11
9.2800619
21
51.838912
0
LINE
8
0
10
9.2800619
20
34.838912
11
27.2800619
21
34.838912
0
LINE
8
0
10
27.2800619
20
51.838912
11
9.2800619
21
51.838912
0
LINE
8
0
10
27.4912603
20
6.5471242
11
45.3352107
21
4.18208
0
LINE
8
0
10
45.3352107
20
4.18208
11
52.0361691
21
54.7399394
0
LINE
8
0
10
29.7249131
20
23.399744
11
47.5688635
21
21.0346998
0
LINE
8
0
10
27.4912603
20
6.5471242
11
34.1922187
21
57.1049836
0
LINE
8
0
10
31.9585659
20
40.2523638
11
49.8025163
21
37.8873196
0
LINE
8
0
10
52.0361691
20
54.7399394
11
34.1922187
21
57.1049836
0
LINE
8
0
10
44.7010201
20
0.5507669
11
62.0580703
21
-4.2171269
0
LINE
8
0
10
61.6289598
20
-5.7792613
11
75.5671027
21
44.9611819
0
LINE
8
0
10
49.2040309
20
16.9435365
11
66.5610811
21
12.1756427
0
LINE
8
0
10
44.7010201
20
0.5507669
11
58.2100525
21
49.7290757
0
LINE
8
0
10
53.7070417
20
33.3363061
11
71.0640919
21
28.5684123
0
LINE
8
0
10
75.5671027
20
44.9611819
11
58.2100525
21
49.7290757
0
LINE
8
0
10
61.6289598
20
-5.7792613
11
78.98601
21
-10.5471551
0
LINE
8
0
10
78.98601
20
-10.5471551
11
92.4950424
21
38.6311537
0
LINE
8
0
10
66.1319706
20
10.6135083
11
83.4890208
21
5.8456145
0
LINE
8
0
10
70.6349814
20
27.0062779
11
87.9920316
21
22.2383841
0
LINE
8
0
10
92.4950424
20
38.6311537
11
75.1379922
21
43.3990475
0
LINE
8
0
10
61.9319794
20
-29.1847742
11
79.0412625
21
-34.7769499
0
LINE
8
0
10
79.0412625
20
-34.7769499
11
84.3227618
21
-18.6181824
0
LINE
8
0
10
84.3227618
20
-18.6181824
11
67.2134787
21
-13.0260067
0
LINE
8
0
10
67.2134787
20
-13.0260067
11
61.9319794
21
-29.1847742
0
LINE
8
0
10
77.7676325
20
-38.7365542
11
94.5380746
21
-45.2750763
0
LINE
8
0
10
94.5380746
20
-45.2750763
11
100.7133455
21
-29.4363254
0
LINE
8
0
10
100.7133455
20
-29.4363254
11
83.9429034
21
-22.8978033
0
LINE
8
0
10
83.9429034
20
-22.8978033
11
77.7676325
21
-38.7365542
0
LINE
8
0
10
86.6467454
20
6.0152461
11
103.7916538
21
1.3056266
0
LINE
8
0
10
103.7916538
20
1.3056266
11
112.5327924
21
33.1268851
0
LINE
8
0
10
112.5327924
20
33.1268851
11
95.387884
21
37.8365046
0
LINE
8
0
10
95.387884
20
37.8365046
11
86.6467454
21
6.0152461
0
ENDSEC
0
EOF