0
SECTION
2
HEADER
9
$INSUNITS
70
4
0
ENDSEC
0
SECTION
2
TABLES
0
TABLE
2
LTYPE
0
LTYPE
72
65
70
64
2
CONTINUOUS
3
______
73
0
40
0
0
ENDTAB
0
TABLE
2
LAYER
0
ENDTAB
0
ENDSEC
0
SECTION
2
ENTITIES
0
LINE
8
0
10
102.9896379
20
-29.0601155
11
119.8079952
21
32.1654664
0
ARC
8
0
10
118.8437146
20
32.4303494
40
1
50
344.64
51
434.6399999
0
LINE
8
0
10
119.1085976
20
33.39463
11
94.0373029
21
40.2815877
0
ARC
8
0
10
93.7724199
20
39.3173071
40
1
50
74.64
51
76.0724949
0
ARC
8
0
10
93.7242059
20
39.3305513
40
1
50
433.2074152
51
434.6399999
0
LINE
8
0
10
77.5963193
20
44.7978426
11
93.9890889
21
40.2948318
0
LINE
8
0
10
77.7605468
20
45.3956965
11
77.5963193
21
44.7978426
0
ARC
8
0
10
76.7962662
20
45.6605795
40
1
50
344.6400031
51
74.6400001
0
LINE
8
0
10
53.8241022
20
53.0079592
11
77.0611492
21
46.6248601
0
LINE
8
0
10
54.1502216
20
55.4684874
11
53.8241022
21
53.0079592
0
ARC
8
0
10
53.158891
20
55.5998787
40
1
50
352.4500025
51
82.45
0
LINE
8
0
10
33.4636708
20
59.2190361
11
53.2902823
21
56.5912093
0
ARC
8
0
10
33.3322795
20
58.2277055
40
1
50
82.45
51
172.4500027
0
LINE
8
0
10
31.7418418
20
53.838912
11
32.3409489
21
58.3590968
0
LINE
8
0
10
8.2800619
20
53.838912
11
31.7418418
21
53.838912
0
ARC
8
0
10
8.2800619
20
52.838912
40
1
50
90
51
180.0000021
0
LINE
8
0
10
7.2800619
20
47.9819017
11
7.2800619
21
52.838912
0
LINE
8
0
10
-21.0991129
20
40.4360906
11
7.2800619
21
47.9819017
0
ARC
8
0
10
-20.8421488
20
39.4696697
40
1
50
104.8899993
51
194.89
0
LINE
8
0
10
-21.8085697
20
39.2127056
11
-8.1894711
21
-12.0076043
0
ARC
8
0
10
-7.2230502
20
-11.7506402
40
1
50
194.8899993
51
277.5165925
0
ARC
8
0
10
-7.0400331
20
-11.7434108
40
1
50
267.0075765
51
290.1768247
0
ARC
8
0
10
14
20
-69
40
60
50
39.9095741
51
110.1768254
0
ARC
8
0
10
60.7905353
20
-29.8637532
40
1
50
219.9095762
51
251.9
0
LINE
8
0
10
76.0436203
20
-35.9012903
11
60.4798589
21
-30.8142689
0
LINE
8
0
10
75.0879925
20
-38.8250374
11
76.0436203
21
-35.9012903
0
ARC
8
0
10
76.0385082
20
-39.1357138
40
1
50
161.9000011
51
248.7
0
LINE
8
0
10
75.675257
20
-40.067405
11
94.7432633
21
-47.5017101
0
ARC
8
0
10
95.1065146
20
-46.5700188
40
1
50
248.6999988
51
338.7
0
LINE
8
0
10
96.0383682
20
-46.9328533
11
102.9398167
21
-29.2315533
0
ARC
8
0
10
102.008288
20
-28.8678854
40
1
50
338.7000014
51
348.9170412
0
ENDSEC
0
EOF